<?xml version="1.0" standalone="no"?>
<!DOCTYPE svg PUBLIC "-//W3C//DTD SVG 20010904//EN"
 "http://www.w3.org/TR/2001/REC-SVG-20010904/DTD/svg10.dtd">
<svg version="1.0" xmlns="http://www.w3.org/2000/svg"
 width="500.000000pt" height="500.000000pt" viewBox="0 0 500.000000 500.000000"
 preserveAspectRatio="xMidYMid meet">
<metadata>
Created by potrace 1.11, written by Peter Selinger 2001-2013
</metadata>
<g transform="translate(0.000000,500.000000) scale(0.100000,-0.100000)"
fill="#000000" stroke="none">
<path d="M1299 4726 c-2 -2 -35 -7 -74 -11 -303 -29 -591 -171 -818 -402 -286
-290 -427 -694 -383 -1093 21 -187 90 -464 163 -650 201 -511 565 -1014 1098
-1515 45 -43 237 -203 305 -255 25 -19 47 -37 50 -40 10 -10 117 -84 260 -178
143 -94 431 -248 541 -288 70 -26 76 -24 309 89 493 239 1071 716 1481 1222
296 365 515 748 630 1099 34 103 68 235 75 285 2 20 9 51 14 71 14 56 32 200
32 270 1 83 -12 239 -22 265 -4 11 -8 23 -8 28 -5 111 -109 361 -214 516 -72
104 -253 283 -360 354 -72 47 -191 109 -283 147 -67 28 -219 66 -307 77 -107
13 -360 6 -428 -12 -8 -2 -29 -7 -46 -9 -130 -22 -386 -142 -519 -242 -92 -70
-199 -174 -262 -256 l-36 -46 -43 57 c-57 77 -193 206 -285 271 -120 85 -356
190 -484 215 -39 8 -72 14 -115 21 -40 7 -266 15 -271 10z"/>
</g>
</svg>
